<svg xmlns="http://www.w3.org/2000/svg" viewBox="0 0 64 64" role="img" aria-labelledby="title desc">
  <title id="title">Le Bouquiniste Book Icon</title>
  <desc id="desc">An open vintage book with a bookmark.</desc>
  <rect width="64" height="64" rx="12" fill="#f5efe3"/>
  <path d="M10 20c0-3 2.2-5 5-5h16c3.2 0 5.7 1.2 8 3.3V49c-2.3-2.1-4.8-3.3-8-3.3H15c-2.8 0-5-2-5-5V20z" fill="#8b5e3c"/>
  <path d="M54 20c0-3-2.2-5-5-5H33c-3.2 0-5.7 1.2-8 3.3V49c2.3-2.1 4.8-3.3 8-3.3h16c2.8 0 5-2 5-5V20z" fill="#a8754f"/>
  <path d="M32 18.3V49" stroke="#f5efe3" stroke-width="2" opacity="0.8"/>
  <path d="M37 14h7v16l-3.5-2.2L37 30V14z" fill="#2f4f4f"/>
  <path d="M15 23h14M15 28h14M15 33h14M35 23h14M35 28h14M35 33h14" stroke="#f5efe3" stroke-width="1.6" opacity="0.5"/>
</svg>
